<?xml version="1.0" encoding="utf-8"?>
<!-- Generator: Adobe Illustrator 24.1.1, SVG Export Plug-In . SVG Version: 6.00 Build 0)  -->
<svg version="1.1" id="Layer_1" xmlns="http://www.w3.org/2000/svg" xmlns:xlink="http://www.w3.org/1999/xlink" x="0px" y="0px"
	 viewBox="0 0 1920 987.9" style="enable-background:new 0 0 1920 987.9;" xml:space="preserve">
<style type="text/css">
	.st0{opacity:0.69;}
	.st1{fill:url(#SVGID_1_);}
</style>
<g class="st0">
	
		<linearGradient id="SVGID_1_" gradientUnits="userSpaceOnUse" x1="959.9503" y1="937.7841" x2="959.9503" y2="0" gradientTransform="matrix(0.9998 2.014380e-02 -2.014380e-02 0.9998 9.64 -19.2419)">
		<stop  offset="0" style="stop-color:#FFF279"/>
		<stop  offset="0.7005" style="stop-color:#DA3718"/>
	</linearGradient>
	<path class="st1" d="M776.5,6.8c0,0,15,53.9-59.9,47c0,0-230-15.3-386.4,297.6c0,0,59.8-41.6,95.9,23.3l-9,176.7
		c0,0,50.2-100.8,91.8-41c41.6,59.8,56.4,124.4,141.5,152.9c0,0-126.1-120.4-70.2-237.2c0,0,80.7-19.8,126.4,104.4
		c0,0,28.4-79.7,86.7-46.5c0,0,16,5.7,31.2,43.4c0,0,44.5-27.3,62.7,9.1c0,0,12.8,9.3-27.2,88.1c0,0-78.3,164.5,21.6,257.6
		c0,0,73.1,76.8,170.4,51.6c0,0,113.3-40.5,104.8-147.9c0,0,2.1-101.8-99.5-114.5c0,0-20.8-0.7-43,9.8
		c-32.4,15.5-55.8,47.5-44.7,95.5c0,0,20.4,48.6,69,28.2c0,0,26.9-4.9,43.9-52.7l-48.6,20.4l5.2,10.8c0,0-16.4,15.8-42.7-6.3
		c-26.4-21.9,7.1-85.6,49.9-84.7c42.8,0.9,64.1,12,79,65.9c14.9,53.9-29.1,111.9-72.2,127.1c-43.1,15.2-139.7,18.6-158.7-99.6
		c0,0-25.3-75.5,95.6-228.4l28.6-35.4c0,0,26.2-22.4,46.9,10.1c0,0,17.3-58.6,65.3-46.9c48,11.7,41.8,49.1,41.8,49.1
		s45.1-111.6,141.2-93.6l-1.4,69.6c0,0,2.8,35.7-72.9,164.6c0,0,48.3-4.4,109.6-121c0,0,24.3-63.8,59.8-41.6
		c0,0,21.2,11.1,40.8,97.2l3.4-171.2c0,0,17.9-90.7,76.5-73.5c0,0,16,5.7,58.1,38.7l5.3,5.5c0,0-4.6-37.6-166.7-233.7
		c-12.3-14.9-99.7-103.8-233.5-111.8c0,0-58.8-6.6-36.3-59.6c0,0-43,9.8-23,79.9c0,0,13.9,44.1-7.8,117.7
		c-17.3,58.6-39.1,79.5-82.5,110.9c0,0,7.6-107-56.2-135.1c0,0-26.5-16.6-63.9-22.7l1-48.2l0.2-10.7l0.1-5.5L908,116.6l-0.5,26.8
		l-10.9,10.5l0.4-21.4l-10.5-10.9l0.3-16.1l0.2-10.7l-11.1,21.2l-0.3,16.1l10.6,5.6l-0.4,21.4l-16.4,15.8l-0.6,32.1l-27.2,20.9
		l-0.2,10.7l5.4,0.1l-0.4,21.4l5.4,0.1l27.1-15.6l10.9-5.1l21.4,0.4l11-15.9l5.8-21.3l21.4,0.4c0,0,31.7,22,15,53.9
		c0,0-80.9,30.5-76.4,68.1c0,0-133-45.5-119.7-173.8c2.1-20.7,0.6-32.1,23.1-85.3C791.3,66,803,18,776.5,6.8z"/>
</g>
</svg>
